<svg width="466.76002197265626px" height="122.021240234375px" xmlns="http://www.w3.org/2000/svg" viewBox="16.61998901367187 13.9893798828125 466.76002197265626 122.021240234375" style="background: rgba(0, 0, 0, 0);" preserveAspectRatio="xMidYMid"><defs><filter id="editing-extrusion" x="-100%" y="-100%" width="300%" height="300%"><feFlood result="color1" flood-color="#444444"></feFlood><feConvolveMatrix order="8,8" divisor="1" kernelMatrix="1 0 0 0 0 0 0 0 0 1 0 0 0 0 0 0 0 0 1 0 0 0 0 0 0 0 0 1 0 0 0 0 0 0 0 0 1 0 0 0 0 0 0 0 0 1 0 0 0 0 0 0 0 0 1 0 0 0 0 0 0 0 0 1" in="SourceAlpha" result="extrude"></feConvolveMatrix><feComposite in="color1" in2="extrude" result="comp-extrude" operator="in"></feComposite><feOffset dx="4" dy="4" in="comp-extrude" result="offset-extrude"></feOffset><feMerge><feMergeNode in="offset-extrude"></feMergeNode><feMergeNode in="SourceGraphic"></feMergeNode></feMerge></filter></defs><g filter="url(#editing-extrusion)"><g transform="translate(86.95188474655151, 98.46781349182129)"><path d="M20.22-22.46L20.22-22.46L20.22-22.46Q21.12-24.83 21.12-26.88L21.12-26.88L21.12-26.88Q21.12-30.66 18.05-30.66L18.05-30.66L18.05-30.66Q16.45-30.66 15.14-29.22L15.14-29.22L15.14-29.22Q13.82-27.78 13.82-25.98L13.82-25.98L13.82-25.98Q13.82-24.70 14.85-23.68L14.85-23.68L14.85-23.68Q16.32-22.27 20.10-19.97L20.10-19.97L20.10-19.97Q23.87-17.66 25.31-15.78L25.31-15.78L25.31-15.78Q26.75-13.89 26.75-11.30L26.75-11.30L26.75-11.30Q26.75-8.70 25.50-6.34L25.50-6.34L25.50-6.34Q24.26-3.97 22.02-2.30L22.02-2.30L22.02-2.30Q17.22 1.28 9.54 1.28L9.54 1.28L9.54 1.28Q5.38 1.28 2.18-0.90L2.18-0.90L2.18-0.90Q-1.02-3.01-1.02-5.50L-1.02-5.50L-1.02-5.50Q-1.02-8 0.80-9.47L0.80-9.47L0.80-9.47Q2.62-10.94 5.31-10.94L5.31-10.94L5.31-10.94Q8-10.94 9.66-9.92L9.66-9.92L9.66-9.92Q8.83-7.81 8.83-6.40L8.83-6.40L8.83-6.40Q8.83-2.18 12.42-2.18L12.42-2.18L12.42-2.18Q13.95-2.18 14.98-3.14L14.98-3.14L14.98-3.14Q16-4.10 16-5.76L16-5.76L16-5.76Q16-9.02 10.50-12.48L10.50-12.48L10.50-12.48Q6.02-15.42 4.99-16.58L4.99-16.58L4.99-16.58Q3.26-18.62 3.26-21.18L3.26-21.18L3.26-21.18Q3.26-23.74 4.48-26.18L4.48-26.18L4.48-26.18Q5.70-28.61 7.94-30.34L7.94-30.34L7.94-30.34Q12.61-33.92 20.74-33.92L20.74-33.92L20.74-33.92Q24.90-33.92 27.36-32.26L27.36-32.26L27.36-32.26Q29.82-30.59 29.82-27.78L29.82-27.78L29.82-27.78Q29.82-24.96 28.13-23.36L28.13-23.36L28.13-23.36Q26.43-21.76 23.36-21.76L23.36-21.76L23.36-21.76Q21.25-21.76 20.22-22.46ZM34.98-1.92L34.98-1.92L34.98-1.92Q33.47-3.58 32.80-6.21L32.80-6.21L32.80-6.21Q32.13-8.83 32.13-13.12L32.13-13.12L32.13-13.12Q32.13-17.41 33.60-21.31L33.60-21.31L33.60-21.31Q35.07-25.22 37.76-28.03L37.76-28.03L37.76-28.03Q43.26-33.92 52.35-33.92L52.35-33.92L52.35-33.92Q55.62-33.92 57.98-32.83L57.98-32.83L68.93-33.92L64.19-8.96L64.19-8.96Q64-8.19 64-6.78L64-6.78L64-6.78Q64-5.38 64.86-4.48L64.86-4.48L64.86-4.48Q65.73-3.58 67.01-3.46L67.01-3.46L67.01-3.46Q66.37-1.28 64.03 0L64.03 0L64.03 0Q61.70 1.28 59.07 1.28L59.07 1.28L59.07 1.28Q56.45 1.28 54.69 0.29L54.69 0.29L54.69 0.29Q52.93-0.70 52.42-2.37L52.42-2.37L52.42-2.37Q51.39-0.77 49.22 0.26L49.22 0.26L49.22 0.26Q47.04 1.28 44.13 1.28L44.13 1.28L44.13 1.28Q41.22 1.28 38.85 0.51L38.85 0.51L38.85 0.51Q36.48-0.26 34.98-1.92ZM48.48-27.90L48.48-27.90L48.48-27.90Q47.74-26.75 47.10-24.80L47.10-24.80L47.10-24.80Q46.46-22.85 45.41-17.63L45.41-17.63L45.41-17.63Q44.35-12.42 44.35-8.70L44.35-8.70L44.35-8.70Q44.35-4.99 44.93-3.90L44.93-3.90L44.93-3.90Q45.50-2.82 46.53-2.82L46.53-2.82L46.53-2.82Q48.58-2.82 50.08-4.77L50.08-4.77L50.08-4.77Q51.58-6.72 52.16-10.18L52.16-10.18L55.55-28.93L55.55-28.93Q54.21-30.08 52.64-30.08L52.64-30.08L52.64-30.08Q51.07-30.08 50.14-29.57L50.14-29.57L50.14-29.57Q49.22-29.06 48.48-27.90ZM118.46 1.28L118.46 1.28L118.46 1.28Q110.72 1.28 110.72-4.74L110.72-4.74L110.72-4.74Q110.72-7.36 111.84-12.45L111.84-12.45L111.84-12.45Q112.96-17.54 113.34-19.58L113.34-19.58L113.34-19.58Q114.24-24.26 114.24-25.73L114.24-25.73L114.24-25.73Q114.24-28.99 111.81-28.99L111.81-28.99L111.81-28.99Q110.21-28.99 108.67-26.78L108.67-26.78L108.67-26.78Q107.14-24.58 106.43-20.16L106.43-20.16L102.46 0L89.98 1.28L93.44-16.13L93.44-16.13Q94.02-19.01 94.53-22.27L94.53-22.27L94.53-22.27Q95.04-25.54 95.04-26.05L95.04-26.05L95.04-26.05Q95.04-28.99 92.86-28.99L92.86-28.99L92.86-28.99Q91.39-28.99 89.79-26.82L89.79-26.82L89.79-26.82Q88.19-24.64 87.30-20.16L87.30-20.16L83.39 0L70.78 1.28L77.50-32.64L87.94-33.92L86.85-27.46L86.85-27.46Q88.51-30.91 91.58-32.42L91.58-32.42L91.58-32.42Q94.66-33.92 99.46-33.92L99.46-33.92L99.46-33.92Q102.21-33.92 104-32.58L104-32.58L104-32.58Q105.79-31.23 106.37-29.06L106.37-29.06L106.37-29.06Q107.46-31.30 110.24-32.61L110.24-32.61L110.24-32.61Q113.02-33.92 116.45-33.92L116.45-33.92L116.45-33.92Q119.87-33.92 121.57-33.18L121.57-33.18L121.57-33.18Q123.26-32.45 124.29-31.23L124.29-31.23L124.29-31.23Q126.02-28.99 126.02-24.90L126.02-24.90L126.02-24.90Q126.02-20.86 124.29-12.48L124.29-12.48L124.29-12.48Q123.39-8.38 123.39-6.88L123.39-6.88L123.39-6.88Q123.39-5.38 124.26-4.48L124.26-4.48L124.26-4.48Q125.12-3.58 126.40-3.46L126.40-3.46L126.40-3.46Q125.76-1.28 123.55 0L123.55 0L123.55 0Q121.34 1.28 118.46 1.28ZM151.87-2.69L151.87-2.69L151.87-2.69Q148.80 1.28 141.18 1.28L141.18 1.28L141.18 1.28Q137.22 1.28 134.34-1.12L134.34-1.12L134.34-1.12Q131.46-3.52 131.46-6.98L131.46-6.98L131.46-6.98Q131.46-8.90 131.65-9.86L131.65-9.86L135.94-32.64L148.93-33.92L144.26-9.22L144.26-9.22Q144-7.81 144-6.98L144-6.98L144-6.98Q144-3.26 146.24-3.26L146.24-3.26L146.24-3.26Q148.74-3.26 150.53-6.66L150.53-6.66L150.53-6.66Q151.10-7.74 151.36-9.15L151.36-9.15L155.90-32.64L168.51-33.92L163.78-8.96L163.78-8.96Q163.58-8 163.58-6.98L163.58-6.98L163.58-6.98Q163.58-5.95 164.16-4.83L164.16-4.83L164.16-4.83Q164.74-3.71 166.59-3.46L166.59-3.46L166.59-3.46Q166.21-1.92 164.86-0.90L164.86-0.90L164.86-0.90Q162.05 1.28 159.01 1.28L159.01 1.28L159.01 1.28Q155.97 1.28 154.18 0.19L154.18 0.19L154.18 0.19Q152.38-0.90 151.87-2.69ZM203.14-26.62L203.14-26.62L203.14-26.62Q203.14-23.94 200.90-22.27L200.90-22.27L200.90-22.27Q198.66-20.61 195.01-20.61L195.01-20.61L195.01-20.61Q193.47-20.61 192.58-21.06L192.58-21.06L192.58-21.06Q193.28-22.72 193.50-24.80L193.50-24.80L193.50-24.80Q193.73-26.88 193.73-27.46L193.73-27.46L193.73-27.46Q193.73-30.14 191.87-30.14L191.87-30.14L191.87-30.14Q190.59-30.14 189.15-28.54L189.15-28.54L189.15-28.54Q187.71-26.94 186.50-24.45L186.50-24.45L186.50-24.45Q183.81-18.69 183.81-12.86L183.81-12.86L183.81-12.86Q183.81-9.66 185.02-8.22L185.02-8.22L185.02-8.22Q186.24-6.78 188.93-6.78L188.93-6.78L188.93-6.78Q192.64-6.78 195.58-9.86L195.58-9.86L195.58-9.86Q196.42-10.82 196.86-11.90L196.86-11.90L196.86-11.90Q199.30-10.62 199.30-7.10L199.30-7.10L199.30-7.10Q199.30-3.52 195.33-1.15L195.33-1.15L195.33-1.15Q191.23 1.28 184.70 1.28L184.70 1.28L184.70 1.28Q171.71 1.28 171.71-12.48L171.71-12.48L171.71-12.48Q171.71-22.53 177.41-28.29L177.41-28.29L177.41-28.29Q182.91-33.92 193.02-33.92L193.02-33.92L193.02-33.92Q203.14-33.92 203.14-26.62ZM237.06-7.10L237.06-7.10L237.06-7.10Q237.06-4.29 239.94-3.46L239.94-3.46L239.94-3.46Q239.23-1.09 236.48 0.19L236.48 0.19L236.48 0.19Q234.18 1.28 231.65 1.28L231.65 1.28L231.65 1.28Q229.12 1.28 227.81 0.61L227.81 0.61L227.81 0.61Q226.50-0.06 225.79-1.15L225.79-1.15L225.79-1.15Q224.64-2.82 224.64-5.95L224.64-5.95L224.64-5.95Q224.64-7.81 225.66-12.93L225.66-12.93L226.56-17.79L226.56-17.79Q227.65-23.36 227.65-25.41L227.65-25.41L227.65-25.41Q227.65-28.99 225.66-28.99L225.66-28.99L225.66-28.99Q223.17-28.99 221.57-25.34L221.57-25.34L221.57-25.34Q220.93-23.94 220.48-21.82L220.48-21.82L216.13 0L203.26 1.28L212.29-44.80L225.15-46.08L224.64-43.52L224.64-43.52Q222.85-33.66 221.31-30.34L221.31-30.34L221.31-30.34Q224.90-33.92 231.49-33.92L231.49-33.92L231.49-33.92Q238.46-33.92 239.74-29.31L239.74-29.31L239.74-29.31Q240.19-27.84 240.19-26.56L240.19-26.56L240.19-26.56Q240.19-25.28 240.10-24.29L240.10-24.29L240.10-24.29Q240-23.30 239.68-21.50L239.68-21.50L238.85-16.90L237.38-9.66L237.38-9.66Q237.06-8.19 237.06-7.10ZM247.90-1.92L247.90-1.92L247.90-1.92Q246.40-3.58 245.73-6.21L245.73-6.21L245.73-6.21Q245.06-8.83 245.06-13.12L245.06-13.12L245.06-13.12Q245.06-17.41 246.53-21.31L246.53-21.31L246.53-21.31Q248-25.22 250.69-28.03L250.69-28.03L250.69-28.03Q256.19-33.92 265.28-33.92L265.28-33.92L265.28-33.92Q268.54-33.92 270.91-32.83L270.91-32.83L281.86-33.92L277.12-8.96L277.12-8.96Q276.93-8.19 276.93-6.78L276.93-6.78L276.93-6.78Q276.93-5.38 277.79-4.48L277.79-4.48L277.79-4.48Q278.66-3.58 279.94-3.46L279.94-3.46L279.94-3.46Q279.30-1.28 276.96 0L276.96 0L276.96 0Q274.62 1.28 272 1.28L272 1.28L272 1.28Q269.38 1.28 267.62 0.29L267.62 0.29L267.62 0.29Q265.86-0.70 265.34-2.37L265.34-2.37L265.34-2.37Q264.32-0.77 262.14 0.26L262.14 0.26L262.14 0.26Q259.97 1.28 257.06 1.28L257.06 1.28L257.06 1.28Q254.14 1.28 251.78 0.51L251.78 0.51L251.78 0.51Q249.41-0.26 247.90-1.92ZM261.41-27.90L261.41-27.90L261.41-27.90Q260.67-26.75 260.03-24.80L260.03-24.80L260.03-24.80Q259.39-22.85 258.34-17.63L258.34-17.63L258.34-17.63Q257.28-12.42 257.28-8.70L257.28-8.70L257.28-8.70Q257.28-4.99 257.86-3.90L257.86-3.90L257.86-3.90Q258.43-2.82 259.46-2.82L259.46-2.82L259.46-2.82Q261.50-2.82 263.01-4.77L263.01-4.77L263.01-4.77Q264.51-6.72 265.09-10.18L265.09-10.18L268.48-28.93L268.48-28.93Q267.14-30.08 265.57-30.08L265.57-30.08L265.57-30.08Q264-30.08 263.07-29.57L263.07-29.57L263.07-29.57Q262.14-29.06 261.41-27.90ZM286.34-6.40L286.34-6.40L286.34-6.40Q286.34-8.13 287.23-12.48L287.23-12.48L290.62-29.76L286.85-29.76L287.10-31.68L287.10-31.68Q294.78-33.98 302.21-39.62L302.21-39.62L305.28-39.62L303.74-32.64L308.74-32.64L308.16-29.76L303.23-29.76L299.97-12.48L299.97-12.48Q299.14-8.51 299.14-7.17L299.14-7.17L299.14-7.17Q299.14-4.10 301.82-3.46L301.82-3.46L301.82-3.46Q301.18-1.28 298.88 0L298.88 0L298.88 0Q296.58 1.28 293.31 1.28L293.31 1.28L293.31 1.28Q290.05 1.28 288.19-0.77L288.19-0.77L288.19-0.77Q286.34-2.82 286.34-6.40ZM306.69-3.78L306.69-3.78L306.69-3.78Q306.69-6.21 308.51-7.52L308.51-7.52L308.51-7.52Q310.34-8.83 313.02-8.83L313.02-8.83L313.02-8.83Q315.71-8.83 317.41-7.52L317.41-7.52L317.41-7.52Q319.10-6.21 319.10-3.78L319.10-3.78L319.10-3.78Q319.10-1.34 317.22 0L317.22 0L317.22 0Q315.33 1.34 312.64 1.34L312.64 1.34L312.64 1.34Q309.95 1.34 308.32 0L308.32 0L308.32 0Q306.69-1.34 306.69-3.78ZM310.14-15.81L310.14-15.81L310.14-15.81Q310.14-16.26 310.27-16.90L310.27-16.90L315.26-42.62L315.26-42.62Q317.63-43.52 320.45-43.52L320.45-43.52L320.45-43.52Q323.26-43.52 324.74-41.73L324.74-41.73L324.74-41.73Q326.21-39.94 326.21-37.28L326.21-37.28L326.21-37.28Q326.21-34.62 325.18-31.65L325.18-31.65L325.18-31.65Q324.16-28.67 322.91-25.66L322.91-25.66L322.91-25.66Q321.66-22.66 320.61-19.55L320.61-19.55L320.61-19.55Q319.55-16.45 319.49-13.18L319.49-13.18L319.49-13.18Q318.02-11.52 315.46-11.52L315.46-11.52L315.46-11.52Q312.90-11.52 311.52-12.70L311.52-12.70L311.52-12.70Q310.14-13.89 310.14-15.81Z" fill="#1b9dc2"></path></g></g><style>text {
  font-size: 64px;
  font-family: Arial Black;
  dominant-baseline: central;
  text-anchor: middle;
}</style></svg>